<svg version="1.2" xmlns="http://www.w3.org/2000/svg" viewBox="0 0 513 265" width="513" height="265"><style>tspan{white-space:pre}.a{opacity:.9;fill:#aa12cc}.b{opacity:1;fill:#010101}</style><path fill-rule="evenodd" class="a" d="m17 109l7.3 4.7c3.9 2.5 8.8 5.7 10.7 6.9 1.9 1.2 8.2 5.2 14 8.8 5.8 3.6 12.2 7.7 14.3 9.1 2 1.4 3.7 2.8 3.7 3.2 0 0.5-0.6 1.7-1.3 2.8-1.4 1.9-1.7 1.9-12.3-3.6-6-3.1-16.1-8-22.4-10.8-9.3-4.3-11.5-5.6-11.3-7.2 0.3-1.9 0.4-1.9 5.3 0.1 2.8 1.1 5 1.8 5 1.5 0-0.3-2.9-2.4-6.5-4.8-5.9-3.8-6.5-4.5-6.5-7.5zm98.2 22.1c0.4 0 0.8 1.5 0.8 7h-6.7c-3.7 0-6.5-0.2-6.3-0.5 0.3-0.2 2.9-1.8 6-3.4 3-1.7 5.8-3.1 6.2-3.1zm5.5-21.9c0.2-0.1 0.3 1.4 0.3 3.4 0 2.8-0.6 3.8-3.3 5.5-1.8 1-4.6 2.8-6.2 3.9-1.7 1.1-2.7 2-2.3 2.1 0.4 0 2.5-0.7 4.5-1.6 2.1-0.8 3.9-1.5 4-1.5 0.2 0 0.3 1 0.3 2.1 0 1.5-1.9 2.8-8.3 5.7-4.5 2-14.6 6.8-36.6 17.8l-1.1-2.5c-1.1-2.3-0.9-2.8 1.6-4.8 1.6-1.2 8.7-5.8 15.9-10.3 7.1-4.4 17-10.7 22-13.9 4.9-3.2 9.1-5.9 9.2-5.9zm-98.2 21.9c0.2 0 3.3 1.5 13 6.9l-13.5 0.1v-3.5c0-2 0.2-3.5 0.5-3.5zm6 10.8l5.5 0.4c3 0.3 6.6 1.1 8 1.9 2.4 1.3 2.3 1.4-2.5 1.6-3.8 0.2-5.8-0.2-8-1.8zm76.7 0.2c2.1 0 3.8 0.2 3.8 0.5 0 0.2-1.4 1.1-3 2-1.7 0.8-5.1 1.5-7.5 1.5-2.8 0-4.3-0.4-3.8-1 0.4-0.6 2.1-1.4 3.7-1.9 1.7-0.6 4.8-1 6.8-1.1zm-61 7c1 0 2.6 0.2 3.5 0.6 1.5 0.5 1.5 0.8-0.7 2.1-2.2 1.3-2.9 1.3-4.8 0.1-1.6-1-1.9-1.6-1-2.1 0.7-0.4 2.1-0.7 3-0.7zm48.6 0c1.4 0 3.2 0.3 3.9 0.7 0.9 0.5 0.7 1.1-1 2.1-1.7 1-2.8 1.1-4.5 0.3-1.2-0.7-2-1.6-1.7-2.1 0.3-0.6 1.8-1 3.3-1zm-38 3c0.9 0 0.8 0.6-0.5 2.2-1 1.2-1.9 2.4-2.1 2.5-0.1 0.1-1.2-0.4-4.7-2.6l3-1c1.6-0.5 3.6-1 4.3-1.1zm27.9-0.1c0.4 0 2.3 0.5 4.3 1.1 3.4 1.1 3.5 1.2 1.2 2.5-2 1.3-2.5 1.2-4.2-0.5-1.1-1.1-2-2.3-2-2.5 0-0.3 0.3-0.6 0.7-0.6zm-20.7 2.1c0.2 0 0.2 1.4 0 3.1-0.3 1.7-0.9 3.3-1.3 3.5-0.4 0.2-1.7-0.1-5.2-1.9l3-2.3c1.6-1.3 3.2-2.4 3.5-2.4zm13.9 0c0.3 0 1.9 1.1 6.6 4.7l-2.3 1.1c-1.2 0.7-2.6 1-3 0.8-0.4-0.2-1-1.8-1.3-3.5-0.3-1.7-0.3-3.1 0-3.1z"/><path fill-rule="evenodd" class="b" d="m204.2 64.7c10.9 0.2 14.7 0.6 15.8 1.7 0.9 0.9 1.2 2.1 0.8 3.1-0.5 0.8-2.1 2.3-3.7 3.2-2.5 1.6-2.7 2.1-1.7 4.1 0.7 1.4 2 2.2 3.6 2.2q2.4 0 1.5 1c-0.6 0.6-2.6 0.9-4.5 0.8-2.8-0.2-3.8-0.9-4.9-3.3-1.2-2.7-1.2-3.1 0.5-4.2 1.1-0.7 2.5-1.8 3.3-2.5 1.2-1.1 1.1-1.5-0.5-2.6-1.1-0.7-3.2-1.2-4.9-1.2-1.6 0-4.7 0.4-6.8 0.8-3.4 0.6-3.9 1.2-5.4 5.7-1 2.7-2.3 5.6-3.1 6.2-0.7 0.7-3.7 1.3-6.5 1.3-4.1 0-4.8-0.2-3.8-1.3 0.6-0.6 2.6-1.2 4.2-1.2 2.8 0 3.3-0.5 5-5 1-2.8 1.9-5.5 1.9-6 0-0.6-1.6-0.7-4.2-0.3-2.4 0.4-5 1.4-5.8 2.3-1.3 1.3-1.1 1.4 2.3 0.7 3.4-0.6 3.7-0.5 3.7 1.5 0 1.3-0.8 2.6-1.7 2.9-1 0.4-2.8 0.4-4 0-1.3-0.3-2.3-1.2-2.3-1.9 0-0.6-1.1-2.3-2.5-3.7-1.4-1.4-2.7-2.3-3-2-0.3 0.3 0 2.7 0.7 5.3 1.3 4.7 1.2 5-1.2 6.8-1.4 1.1-4.1 2.2-6 2.5-2 0.4-5 0-7-0.8-2-0.8-3.6-2.2-3.8-3.3-0.2-1.1 0.4-2.6 1.5-3.3 1-0.7 3.5-1.2 5.6-1.2 2 0 3.9 0.4 4.2 1 0.3 0.6-0.8 1-2.5 1-1.6 0-3.2 0.4-3.5 1-0.3 0.5 0.1 1.7 0.8 2.5 0.6 0.9 2.1 1.6 3.2 1.6 1.1 0 2.7-0.8 3.5-1.7 1.2-1.3 1.3-2.3 0.3-5.8-0.7-2.6-0.8-4.7-0.2-5.9 0.7-1.4 2.2-1.7 8.4-1.6 4.1 0.1 7.7 0 7.9-0.2 0.3-0.2 6.9-0.3 14.8-0.2zm69.8-0.5c4.1 0 8.6 0.2 9.9 0.6 2 0.6 2.3 1.2 2 4.9-0.2 2.4-0.3 4.3-0.1 4.3 0.1 0 1.6-2 3.2-4.5 1.6-2.5 3.7-4.5 4.5-4.5 1.1 0 1.5 1.2 1.5 9.5l2.8-4.8c1.5-2.6 3.3-4.7 4-4.7 0.7 0-0.2 2.6-2.4 6.7-2 3.8-4.2 7.4-4.8 8.1-0.6 0.7-1.7 1.3-2.3 1.2-0.9 0-1.3-1.7-1.3-10.5l-3.2 5c-1.8 2.7-4.1 5.1-5 5.2-1.6 0.3-1.7-0.4-1.1-7 0.5-6.5 0.4-7.1-1-6.5-1 0.5-2.6 0.8-3.7 0.8-1.5 0-2.4 1.2-3.7 5.2-1 2.9-2.3 5.9-3.1 6.5-0.7 0.7-3.7 1.3-6.5 1.3-4.1 0-4.8-0.2-3.8-1.3 0.6-0.6 2.6-1.2 4.2-1.2 2.8 0 3.3-0.5 5-5 1-2.8 1.7-5.1 1.6-5.2-0.1-0.1-1.3-0.2-2.7-0.4-1.4-0.1-3.5-0.1-4.7-0.1-1.3 0.1-2.5 0.9-2.8 1.7-0.4 1.2 0.1 1.4 3.1 0.7 3.5-0.7 3.6-0.6 3.3 1.8-0.3 1.8-1.1 2.6-2.9 2.8-1.4 0.1-3.1-0.1-3.8-0.5-0.7-0.5-1.3-1.7-1.5-2.9-0.1-1.6-0.7-1.9-2.5-1.5-1.8 0.5-2.5 0.1-3-1.7-0.4-1.2-1.1-2.1-1.7-1.9-0.5 0.2-1.2 1.4-1.4 2.8-0.2 1.3-1.4 3.4-2.7 4.6-1.3 1.3-2.3 2.9-2.1 3.5 0.2 0.8 2.6 1.4 6.5 1.5 3.7 0.2 6 0.7 5.7 1.3-0.3 0.5-3.6 1-7.5 1-4.9 0-7.5-0.5-8.5-1.5-0.8-0.8-1.5-2-1.5-2.5 0-0.5 0.9-1.9 2-3 1.1-1.1 2.5-2 3-2 0.6 0 1-1 1-2.3 0-1.2 0.5-2.8 1.2-3.5 0.7-0.6 3.4-1.2 6-1.2 3.5 0 5.1 0.5 5.8 1.7 0.5 1 0.9 1.3 0.8 0.6-0.1-0.7 1.3-1.7 3.2-2.2 1.9-0.5 6.9-0.9 11-0.9zm43.1 0.7c0.9 0.2 1.7 1.2 1.8 2.2 0 1.1-0.7 2.2-1.6 2.6-1.2 0.4-2.4-0.2-3.6-1.8-1.5-2-2-2.1-2.7-0.9-0.4 0.8-0.5 2.1-0.2 2.8 0.4 0.8-0.4 2.2-2.2 3.5-2 1.6-2.7 2.7-2.3 3.9 0.6 1.4 1.9 1.8 6 1.8 4.1 0 5.5-0.4 6.5-2 0.6-1.1 2.9-2.4 5-3 2-0.5 4.8-1 6.2-1 1.7 0 3.6-1.3 6.1-4.2 2.3-2.8 4.5-4.4 6.2-4.6 1.5-0.1 2.7-0.1 2.7 0 0 0.2-0.6 2.2-3 8.8h4.5c3.7 0 4.6-0.4 5-2 0.3-1.2 1.3-2 2.5-2 1.1 0 2 0.2 2 0.5 0 0.3-0.9 3-2 6-1.5 4.2-2.5 5.5-4 5.5-1.1 0-2-0.2-2-0.5 0-0.3 0.4-1.6 1-3 1-2.4 0.9-2.5-3.2-2.5-3.8 0-4.4 0.3-5.5 3-0.8 1.9-2 3-3.3 3-1.7 0-1.9-0.3-1-2.5 0.6-1.4 1-2.7 1-3 0-0.3-0.8-0.5-1.7-0.5-1-0.1-2.7 0.9-3.8 2.1-1.1 1.1-3.1 2.7-4.5 3.4-1.8 1-5.4 1.2-13 0.8-5.8-0.3-11.1-1.1-11.8-1.7-0.7-0.6-1.3-1.9-1.3-2.8 0-0.9 1.1-2.5 2.5-3.6 1.4-1.1 2.5-2.8 2.5-3.8 0-1.1 0.6-2.4 1.3-3.1 0.7-0.6 2.9-1.3 4.8-1.5 1.9-0.2 4.2-0.1 5.1 0.1zm19.2 7.6c0.4 0.3 1 0.3 1.5 0.1 0.4-0.2 1-1.3 1.3-2.5 0.3-1.1 0.5-2.1 0.4-2.1-0.1 0-1.1 0.9-2.1 2-1 1.1-1.6 2.2-1.1 2.5zm-13.5 5.5c0.1 0.6 1 1 2 1 0.9 0.1 2.5-0.8 3.5-2 1.7-1.9 1.7-2 0-2-1 0-2.7 0.5-3.7 1.1-1.1 0.5-1.9 1.4-1.8 1.9zm31.2-13.9c3 0.1 6.6 0.4 7.9 0.7 1.3 0.4 2.9 1.5 3.5 2.5 0.9 1.5 0.6 2.3-2.1 4.8-2.3 2-3.1 3.5-2.8 4.9q0.5 2 3 2c1.4 0 2.3 0.4 2 1-0.3 0.5-2.1 1-4 1-3 0-3.8-0.5-5.1-3.3-1.5-3-1.5-3.3 0.2-4.4 1.1-0.7 2.5-1.7 3.2-2.3 0.6-0.5 1-1.5 0.8-2-0.2-0.6-3.6-1-7.5-1-3.9 0-7.2-0.4-7.3-0.8-0.1-0.4 0.4-1.3 1.2-2 0.8-0.7 3.9-1.2 7-1.1zm117 35c2.5 0 7.3 0.6 10.8 1.4 3.4 0.8 7.4 2.3 9 3.2 1.5 0.9 4.4 3.3 6.5 5.2 2.1 2 4.8 5.4 6 7.6 1.1 2.2 2.4 6 2.8 8.5 0.4 2.9 0.3 5-0.5 5.8-0.7 0.9-3.9 1.3-9.8 1.2-4.9 0-9.5-0.2-10.3-0.5-0.8-0.3-1.5-1.4-1.5-2.5 0-1.1-1.2-3.4-2.7-5.1-1.9-2.1-4.1-3.2-6.8-3.6-2.2-0.3-5.7 0-7.7 0.6-2.8 0.8-4.2 2-5.2 4.3-0.8 1.8-1.2 4.6-0.9 6.3 0.3 1.7 1 3.6 1.6 4.4 0.7 0.7 2.3 1.8 3.7 2.4 1.4 0.5 5.9 1.3 10 1.7 4.1 0.4 10.2 1.8 13.5 3 3.6 1.4 7.5 3.8 9.8 6.2 2 2.1 4.5 5.3 5.4 7 1.4 2.6 1.8 5.8 1.8 14.3 0 9.4-0.3 11.6-2.2 15-1.2 2.2-3.7 5.5-5.5 7.4-1.8 1.9-5.8 4.6-8.8 6-4.9 2.3-6.7 2.6-17.5 2.6-10.8 0-12.5-0.3-17.5-2.6-3-1.4-6.9-3.7-8.5-5.1-1.6-1.4-4.3-5-5.9-7.9-1.6-3-3.2-7.8-4.1-16l22.9 0.6 0.8 3.2c0.4 1.8 2 4.2 3.6 5.3 2.1 1.6 4.2 2.1 9 2 5.7 0 6.6-0.3 9.3-3 2.1-2.2 2.9-4 2.9-6.8 0-2.7-0.6-4.4-2.6-6.2-2.1-2-4.4-2.7-12.3-3.8-6.5-0.9-11.6-2.2-15.8-4.2-3.5-1.7-7.2-4-8.4-5.3-1.1-1.2-3.3-4.9-4.9-8.2-2.4-4.9-2.9-7.3-3-13.5 0-6.3 0.4-8.4 2.9-13.5 1.6-3.4 4.6-7.4 6.8-9.2 2.1-1.7 5.6-3.9 7.8-4.9 2.2-0.9 5.6-2 7.5-2.4 1.9-0.4 5.5-0.8 8-0.9zm-335.8 1.9c1.7 0 1.8 1.8 1.8 34.5 0 28.7 0.3 35 1.5 37.5 0.8 1.7 2.7 3.9 4.3 5 1.5 1.1 4.5 2.3 6.7 2.6 2.5 0.4 5.5 0 8-1 2.4-1 5-3.1 9-9v-3.5c-0.1 1.3-0.2 2-0.3 2.1-0.4 0.4-0.5-11.3-0.2-26l0.5-26.7v2.7c0.1-16.8 0.5-17.4 2-17.8 1.1-0.3 6.1-0.4 20 0.1v75l-2.7 5.5c-1.5 3-4.6 7.4-7 9.7-2.4 2.3-6.8 5.4-9.8 7-5.1 2.6-6.3 2.8-17.5 2.8-11.1 0-12.5-0.2-18-2.8-3.3-1.6-7.6-4.5-9.5-6.6-1.9-2.1-4.3-4.9-5.3-6.2-1-1.3-2.4-4.4-3.1-6.9-0.9-3-1.4-10.5-1.5-22.8-0.1-11.5 0.3-18.2 0.9-18.2 0.6 0 1-1.1 1-2.5 0-1.8 1-3.1 3.8-4.8 2.3-1.5 4.5-4.1 6-7 1.2-2.6 3.4-8.8 4.9-13.7 2.1-7 3.1-9 4.5-9zm230.8 0c7 0 10.2 0.4 10.7 1.2 0.4 0.7 0.7 16.4 0.8 68.4l2.5 3.7c1.4 2 3.6 4.2 4.9 4.9 1.3 0.7 4.5 1.3 7 1.3 2.5 0 5.9-0.7 7.5-1.5 1.6-0.8 3.9-2.8 5-4.3 2-2.7 2.1-4.3 3.1-73.2l10-0.2c6.9-0.2 10.4 0.1 11.3 1 1 0.9 1.3 8.1 1.2 33.7-0.1 24.7-0.4 34-1.5 38.7-0.8 3.5-2.2 7.6-3 9.3-0.8 1.6-3.5 5-6 7.5-2.5 2.5-6.9 5.7-9.7 7.2-4.9 2.5-6.3 2.7-17.3 2.7-11.1 0.1-12.4-0.1-17.7-2.7-3.2-1.5-7.7-4.6-10-7-2.4-2.3-5.4-6.5-9.3-14.2l-0.2-36.9c-0.1-20.3 0-37.5 0.2-38.3 0.3-1 3-1.3 10.5-1.3zm41.2 0c0.2 0 0.1 3.7-0.7 16.5l-0.3-6.9c-0.2-3.8-0.1-7.5 0.2-8.3 0.3-0.7 0.7-1.3 0.8-1.3zm-217.5 18.5c0.2 9.3 0.2 24.4 0 33.5-0.1 9.1-0.3 1.4-0.3-17 0-18.4 0.2-25.9 0.3-16.5zm165-0.5c0.2 9.1 0.2 24.4 0 34-0.1 9.6-0.3 2.2-0.3-16.5 0-18.7 0.2-26.6 0.3-17.5zm23 5.5c0.2 7.7 0.2 20.7 0 29-0.1 8.2-0.3 1.9-0.3-14 0-16 0.2-22.7 0.3-15zm29 2c0.2 2.7 0.2 7.7 0 11-0.2 3.3-0.3 1-0.3-5 0-6.1 0.1-8.8 0.3-6zm-255.2 75.8c3.3 0 4.9 0.2 3.5 0.4-1.4 0.2-4.1 0.2-6 0-1.9-0.2-0.8-0.4 2.5-0.4zm241 0c3.3 0 4.9 0.2 3.5 0.4-1.4 0.2-4.1 0.2-6 0-1.9-0.2-0.8-0.4 2.5-0.4zm79.5 0c3.6 0 4.9 0.2 3 0.4-1.9 0.2-4.9 0.2-6.5 0-1.6-0.2-0.1-0.4 3.5-0.4zm-306.3-82.8c0.2 9.3 0.2 24.4 0 33.5-0.1 9.1-0.3 1.4-0.3-17 0-18.4 0.2-25.9 0.3-16.5zm213 0c0.2 9.3 0.2 24.4 0 33.5-0.1 9.1-0.3 1.4-0.3-17 0-18.4 0.2-25.9 0.3-16.5zm-144-54.5c4.9 0 5.3 0.2 5.1 2.2q-0.3 2.3-2.5 2.5-2.3 0.3-3-1.7c-0.5-1.2-1.2-1.9-1.8-1.7-0.5 0.2-1 1.6-1 3 0 1.6-0.9 3.2-2.2 4.2-1.3 0.8-2.3 2.4-2.3 3.5 0 1.8 0.7 2 6 2 3.7 0 5.8 0.4 5.5 1-0.3 0.5-3.5 1-7.2 1-4.2 0-7.3-0.5-8.1-1.2-0.7-0.7-1.2-2.1-1.2-3.1 0-0.9 1.1-2.6 2.5-3.7 1.4-1.1 2.4-2.8 2.3-3.8-0.1-1 0.4-2.3 1.2-3 0.8-0.7 3.8-1.2 6.7-1.2zm-25.7 4c1.5 0 1.8 0.5 1.4 1.7-0.3 1-1.2 3.7-2 6-1 3.2-1.9 4.3-3.4 4.3-1.1 0-2-0.3-2-0.8 0-0.4 0.6-2.3 1.3-4.2 0.8-1.9 1.7-4.3 2-5.3 0.4-0.9 1.6-1.7 2.7-1.7zm-137.5 32c9 0 10.6 0.3 11.4 1.7 0.5 1 2.3 6.1 4 11.3 1.7 5.2 3.1 9.5 3.1 9.5 0.1 0-3.9 2.4-8.7 5.4-4.8 3-9.2 5.5-9.8 5.5-0.5 0-5-2.5-9.8-5.5-4.8-3-8.8-5.4-8.7-5.4 0 0 1.4-4.3 3.1-9.5 1.7-5.2 3.5-10.3 4-11.3 0.8-1.4 2.5-1.7 11.4-1.7zm154 0.3c20.4 0.2 25.6 0.6 28.5 1.9 1.9 0.9 5.5 3.4 8 5.5 3 2.6 5.5 6.2 7.4 10.4 2.6 5.8 2.8 7.2 2.4 14.4-0.4 6.3-1.1 9.1-3.3 13-1.5 2.7-3.6 5.9-4.6 7-1 1.1-4.5 3.3-7.8 5-3.3 1.6-6 3.3-6.1 3.7 0 0.5 3 5.1 6.8 10.4 3.7 5.2 9.1 12.9 12 17 2.8 4.1 5 8.1 4.7 8.9-0.1 0.4-0.4 0.7-1.4 0.9 1-0.1 1.6-0.2 1.6-0.2 0.1-0.1 0 0.2-0.2 0.8-0.3 0.6-5.4 0.9-25 0.6l12.5-0.6q0.8 0 1.6-0.1c-3.6 0.1-8.3 0.1-14.6 0.1l-2.5-3.8c-1.4-2-5-7.3-8.1-11.7-3.2-4.4-7.8-10.9-14.9-21l-1 36h-23l-0.2-28.5c-0.2-21.4 0-28.8 1-29.8 0.9-1 6.2-1.3 45.2-1.1l2.3-2.5c1.2-1.4 2.2-3.7 2.2-5.1 0-1.4-0.6-3.6-1.2-5-0.7-1.4-2-2.9-2.8-3.2-0.8-0.4-11.6-1-46.5-1.8l-0.5-9.9c-0.3-8-0.1-10.1 1-10.8 0.8-0.5 12.8-0.7 26.5-0.5zm119 0.2l0.3 10c0.1 6.1-0.2 10.4-0.8 11-0.5 0.4-5.3 0.8-20.6 0.9 1.7 0.1 1.8 0.2 0.1 0.3-2.7 0.2-7 0.2-9.5 0-1.2-0.1-1.3-0.1-0.6-0.2q-4.5 0-9.9 0l-0.5 15.5h15.8c11.6-0.1 16 0.2 16.9 1.2 0.9 0.9 1.2 4.3 0.8 20.7 0.5-0.5 1.1-0.9 1.3-0.9 0.2 0-0.3 0.7-1 1.5-1.1 1.3-3.9 1.5-33.3 1.1l16-0.3c5.6-0.2 10.8-0.4 13.9-0.8l-30.4 0.5v16h21.5c13.2 0 21.6 0.4 21.8 1 0.1 0.5 0.1 5.5-0.3 21h-65l-0.1-41.8c-0.1 6.2-0.1 12-0.2 16.8-0.1 13.5-0.2 2.7-0.2-24 0-26.7 0.1-37.7 0.2-24.5 0.1 2.7 0.1 5.7 0.1 8.9 0.1-19.3 0.3-33.4 0.7-33.7 0.5-0.4 14.8-0.6 63-0.2zm-306.5 58.5h10.3c6.9 0 10.6 0.4 11.5 1.2 1 1 1.2 1 1.2 0 0-0.8 2.2-1.2 7.5-1.2q2.1 0 3.7 0.1c-1.2-0.2-2.4-0.3-3.7-0.3l-7-0.4 7-0.2c5.7-0.2 7.3 0 8.5 1.5q0.6 0.7 0.8 1 0.2-0.1 0.5-0.5c0.7-0.8 4.1-1.2 18.2-1.3l1.8 4.8c1.1 2.6 2.5 6.1 3.2 7.8 0.7 1.6 2.2 5.7 3.3 9 1.1 3.3 3 8.1 4.1 10.7 1.2 2.7 2.1 5.5 2.1 6.3 0 1.2-1.9 1.5-11.5 1.5-11 0-11.5-0.1-12.4-2.3-0.5-1.2-1.9-4.7-3.1-7.7-1.2-3-2.5-5.8-2.9-6.3-0.3-0.4-5.6-0.9-11.6-1-6.1-0.2-12.3-0.1-13.9 0.2-2.2 0.5-3.2 1.4-3.8 3.6-0.5 1.6-1.8 5.4-4.8 13.5h-11.5c-8.5 0-11.5-0.3-11.5-1.3 0-0.6 1.1-4.1 2.4-7.7 1.4-3.6 3.8-10.1 5.5-14.5 1.7-4.4 3.1-8.3 3-8.6 0-0.4 0.7-2.3 1.6-4.3zm38.5 1.3c0.4 0.7 0.7 0.9 1.1 0.6q-0.2-0.2-0.7-0.6-0.2-0.1-0.5-0.3 0.1 0.1 0.1 0.3zm143.9-37.9c11.6 0 16.5 0.2 11 0.4-5.5 0.1-14.9 0.1-21 0-6-0.2-1.5-0.4 10-0.4zm-172.5 36c5.3 0 7.3 0.2 4.5 0.4-2.7 0.2-7 0.2-9.5 0-2.4-0.2-0.2-0.4 5-0.4zm40.5 0c4.4 0 6.5 0.1 4.5 0.3-1.9 0.3-5.5 0.3-8 0.1-2.4-0.3-0.9-0.4 3.5-0.4zm235.5 18c11.9 0 16.6 0.2 10.5 0.4-6 0.1-15.7 0.1-21.5 0-5.7-0.2-0.8-0.4 11-0.4zm22.8 7.6c0.2 2.5 0.2 7 0 10-0.2 3-0.4 1-0.4-4.5 0-5.5 0.2-8 0.4-5.5zm-311.3 15.4c6.1 0 8.8 0.2 6 0.4-2.7 0.2-7.7 0.2-11 0-3.3-0.2-1-0.4 5-0.4zm63.5 0c5.8 0 8.1 0.2 5 0.4-3 0.2-7.7 0.2-10.5 0-2.7-0.2-0.2-0.4 5.5-0.4zm111 0c5.8 0 8.1 0.2 5 0.4-3 0.2-7.7 0.2-10.5 0-2.7-0.2-0.2-0.4 5.5-0.4zm103.5 0.1c17.6 0 25.1 0.1 16.5 0.3-8.5 0.1-22.9 0.1-32 0-9-0.2-2.1-0.3 15.5-0.3zm-115.7-94.5c0.2 1.9 0.2 5.5 0 8-0.2 2.5-0.4 0.9-0.4-3.5 0-4.4 0.2-6.4 0.4-4.5zm148 1c0.2 2.5 0.2 6.8 0 9.5-0.2 2.8-0.4 0.7-0.4-4.5 0-5.2 0.2-7.5 0.4-5zm-148.1 37.5c0.3 1.1 0.3 3.4 0.1 5-0.3 1.7-0.5 0.9-0.5-2 0-2.7 0.2-4.1 0.4-3zm-128.2 38.9c6.6 0 9.6 0.2 6.5 0.4-3 0.2-8.4 0.2-12 0-3.5-0.2-1.1-0.4 5.5-0.4z"/></svg>